# xmcd CD database file
#
# Track frame offsets:
#	150
#	20978
#	42820
#	56167
#	78709
#
# Disc length: 1518 seconds
#
# Revision: 0
# Processed by: cddbd v1.5.1PL0 Copyright (c) Steve Scherf et al.
# Submitted via: CDex 1.51
#
DISCID=4105ec05
DTITLE=NONA REEVES - 透明ガール
DYEAR=2005
DGENRE=Rock
TTITLE0=透明ガール
TTITLE1=I WANT U BACK [LIVE]
TTITLE2=ジャクソン・ライヴ・メドレー（帰ってほしいの/ABC/小さな経験） [LIVE]
TTITLE3=リズムナイト [LIVE]
TTITLE4=メモリーズ 〜ひと夏の記憶〜 [LIVE]
EXTD=YEAR: 2005
EXTT0=
EXTT1=
EXTT2=
EXTT3=
EXTT4=
PLAYORDER=
